<svg width="95" height="51" viewBox="0 0 95 51" fill="none" xmlns="http://www.w3.org/2000/svg">
<path d="M88.5493 0.518982H86.3203V16.3138H88.5493V0.518982Z" fill="#382352"/>
<path d="M68.2272 4.43058C68.0655 4.38003 67.7875 4.31938 67.4236 4.24862V4.21829L66.0083 3.96558L65.7809 3.92009H65.7354L63.6227 3.54101C63.0042 3.42832 62.3685 3.45307 61.7607 3.6135C61.1528 3.77393 60.5877 4.06611 60.1054 4.46933C59.6231 4.87255 59.2353 5.37694 58.9697 5.94673C58.7041 6.51653 58.5671 7.13777 58.5684 7.76643V13.7811C57.6737 13.7811 53.514 13.7305 53.0541 13.6851C52.6726 13.6458 52.3176 13.4713 52.0535 13.1933C51.7893 12.9152 51.6333 12.5518 51.6136 12.1688V10.2532C51.5479 6.91731 50.7897 6.10861 48.6063 5.49198C47.4741 5.17356 41.4999 4.19808 37.3098 3.51574L36.5719 3.38433C35.9541 3.27087 35.319 3.29474 34.7115 3.45423C34.104 3.61373 33.539 3.90495 33.0567 4.30723C32.5743 4.70952 32.1864 5.21301 31.9204 5.78201C31.6544 6.351 31.5169 6.97155 31.5176 7.59964V13.8165C30.1226 13.8165 25.1339 13.7609 24.3758 13.6851C23.9643 13.6391 23.587 13.4342 23.3245 13.1139C23.2773 11.4291 23.1476 9.46301 22.9353 7.21551L20.7417 7.85741L21.8082 15.0801C21.2818 16.1718 20.4718 17.1022 19.463 17.774C18.5687 18.3771 17.5086 18.6862 16.4304 18.6585H15V20.9987H16.0361C19.9128 20.9987 22.8797 18.7697 23.3043 15.2216C23.8097 15.8483 28.5861 16.3335 31.4215 16.3335H41.7829C45.7961 16.2931 47.9239 16.0606 49.1319 15.5349C49.5818 15.3493 49.9717 15.0432 50.259 14.6504L50.441 14.423H50.9161L51.0425 14.7414C51.3558 15.5501 55.4246 16.2577 58.5936 16.3335H61.7374C65.5433 16.3032 67.56 16.0808 68.7074 15.5804C69.1364 15.4073 69.5079 15.1164 69.7789 14.7414L71.0879 13.1139V8.94915C71.0222 5.78514 70.2995 5.01688 68.2272 4.43058ZM41.8385 13.5284L41.4948 13.5739C40.5699 13.6547 39.3771 13.7305 38.3763 13.7861L36.951 13.8165C36.3091 13.8165 35.7683 13.7659 35.278 13.7204C34.8351 13.6848 34.422 13.4833 34.1212 13.1563C33.8204 12.8293 33.6541 12.4008 33.6556 11.9565V8.46899V7.60975C33.6542 7.29944 33.7213 6.99265 33.8519 6.71118C33.9826 6.42971 34.1736 6.18049 34.4115 5.98121C34.6494 5.78194 34.9283 5.63751 35.2283 5.55819C35.5283 5.47888 35.8421 5.46663 36.1473 5.52231L38.2499 5.90139H38.2954C39.4124 6.11872 40.2767 6.29563 40.6457 6.40682C40.9821 6.49751 41.2805 6.69376 41.4971 6.96672C41.7136 7.23967 41.8368 7.57491 41.8486 7.92312C41.8486 8.18595 41.8385 13.5031 41.8385 13.5031V13.5284ZM49.2937 13.5284L48.9348 13.5739C47.9543 13.6598 46.7008 13.7407 45.6495 13.7912C44.8458 13.7912 44.1029 13.8266 43.6278 13.8417H43.3548L44.0624 12.9623V8.80763C44.0637 8.15659 44.0044 7.50685 43.8855 6.86676C45.8668 7.23068 47.4842 7.5491 48.0452 7.69567C48.3987 7.78785 48.7131 7.99155 48.9416 8.27654C49.1701 8.56153 49.3007 8.91262 49.3139 9.27768C49.3088 9.59105 49.2937 13.5031 49.2937 13.5031V13.5284ZM68.8792 13.675L68.5305 13.7103C67.6055 13.7912 66.4177 13.8721 65.422 13.9277L63.4761 13.9681H62.3237H60.6811V7.73611C60.6812 7.42599 60.7495 7.1197 60.8811 6.83887C61.0126 6.55805 61.2043 6.30954 61.4424 6.11092C61.6806 5.91229 61.9595 5.76839 62.2594 5.68939C62.5592 5.61039 62.8728 5.59821 63.1779 5.65372L65.2805 6.02269H65.321C66.4481 6.23497 67.3073 6.40682 67.6763 6.52812C68.0139 6.61662 68.3137 6.81227 68.5306 7.08569C68.7475 7.35911 68.8698 7.69554 68.8792 8.04442C68.8893 8.32241 68.8792 13.675 68.8792 13.675Z" fill="#382352"/>
<path d="M81.0447 4.43066C80.8779 4.38517 78.8309 3.96566 78.8309 3.96566C78.75 3.96566 78.6742 3.93533 78.5933 3.92017H78.5478L74.8784 3.17719L73.4884 5.03212C73.4789 5.04572 73.4729 5.06146 73.4709 5.07795C73.4689 5.09444 73.4709 5.11117 73.4769 5.12666C73.4829 5.14215 73.4927 5.15593 73.5052 5.16677C73.5178 5.17761 73.5329 5.18518 73.5491 5.18881L75.9398 5.64875H75.9752L78.0778 6.01772H78.1182C79.2403 6.23 80.1046 6.4069 80.4735 6.52315C80.8103 6.61312 81.1092 6.80917 81.3259 7.08228C81.5425 7.35538 81.6655 7.69101 81.6765 8.03945C81.6765 8.34271 81.6765 13.67 81.6765 13.67L81.3277 13.7054C80.4028 13.7862 79.215 13.8671 78.2193 13.9227L76.2734 13.9631H75.121H74.0343H73.5289H73.4733L72.1996 15.6968C72.0075 15.9495 71.6335 16.3185 71.9519 16.3134H74.5499C78.3558 16.2831 80.3725 16.0607 81.5198 15.5654C81.9491 15.3901 82.3204 15.0976 82.5913 14.7213L83.8145 13.205C83.873 13.138 83.9037 13.0512 83.9004 12.9624V8.94923C83.8347 5.78522 83.117 5.01696 81.0447 4.43066Z" fill="#382352"/>
<path d="M94.9984 2.60642L92.9211 0.518982L90.8438 2.60642L92.9211 4.68375L94.9984 2.60642Z" fill="#382352"/>
<path d="M92.0694 7.85873L93.1257 15.0814C92.5993 16.1732 91.7894 17.1036 90.7805 17.7753C89.8867 18.3793 88.8263 18.6886 87.7479 18.6598H86.3125V21H87.3486C91.5387 21 94.6774 18.397 94.6774 14.3333C94.6774 12.4026 94.541 10.0321 94.268 7.25726L92.0694 7.85873Z" fill="#382352"/>
<path d="M4.38784 45.668C3.29584 45.668 2.46518 45.4113 1.89584 44.898C1.31718 44.394 1.02784 43.6053 1.02784 42.532C1.02784 41.916 1.13051 41.244 1.33584 40.516C1.53184 39.788 1.79318 38.962 2.11984 38.038L2.91784 38.346C2.65651 39.1113 2.43251 39.83 2.24584 40.502C2.05918 41.1647 1.96584 41.7433 1.96584 42.238C1.96584 42.9753 2.18984 43.5167 2.63784 43.862C3.09518 44.2167 3.73451 44.394 4.55584 44.394C4.88251 44.394 5.22318 44.366 5.57784 44.31C5.93251 44.2633 6.28251 44.1793 6.62784 44.058C6.98251 43.9367 7.30451 43.778 7.59384 43.582C7.89251 43.3953 8.14451 43.1667 8.34984 42.896C8.29384 42.7373 8.20984 42.5973 8.09784 42.476C7.98584 42.364 7.81784 42.2707 7.59384 42.196C7.36051 42.1213 7.05718 42.0653 6.68384 42.028C6.30118 42 5.81584 41.986 5.22784 41.986L5.53584 40.768H9.93184V42H9.00784C9.08251 42.1867 9.12918 42.3733 9.14784 42.56C9.15718 42.756 9.13851 42.9287 9.09184 43.078C9.03584 43.3953 8.87251 43.708 8.60184 44.016C8.33118 44.324 7.98584 44.5993 7.56584 44.842C7.13651 45.094 6.65118 45.2947 6.10984 45.444C5.56851 45.5933 4.99451 45.668 4.38784 45.668ZM9.52344 40.768C10.0741 40.768 10.5081 40.6887 10.8254 40.53C11.1428 40.3713 11.3994 40.138 11.5954 39.83C11.7821 39.5313 11.9268 39.158 12.0294 38.71C12.1228 38.2713 12.2114 37.7627 12.2954 37.184L13.2754 37.31C13.2101 37.8513 13.1261 38.3553 13.0234 38.822C12.9301 39.2793 12.8321 39.6527 12.7294 39.942C12.8881 40.2687 13.1121 40.488 13.4014 40.6C13.6814 40.712 14.0221 40.768 14.4234 40.768V42C13.9474 42 13.5274 41.9207 13.1634 41.762C12.7901 41.6127 12.4541 41.342 12.1554 40.95C11.8848 41.286 11.5441 41.5427 11.1334 41.72C10.7228 41.9067 10.1861 42 9.52344 42C9.4021 42 9.29944 41.944 9.21544 41.832C9.14077 41.7293 9.10344 41.58 9.10344 41.384C9.10344 41.1973 9.14077 41.048 9.21544 40.936C9.29944 40.824 9.4021 40.768 9.52344 40.768ZM13.6114 35.28L12.8134 36.092L11.9874 35.28L12.8134 34.468L13.6114 35.28ZM11.7214 35.28L10.9234 36.092L10.1114 35.28L10.9234 34.468L11.7214 35.28ZM14.418 40.768C14.81 40.768 15.16 40.6653 15.468 40.46C15.776 40.264 16.0606 40.0167 16.322 39.718C16.5833 39.4193 16.8306 39.0973 17.064 38.752C17.1853 38.5747 17.302 38.4067 17.414 38.248C17.5353 38.0893 17.6566 37.9353 17.778 37.786C18.0113 37.4873 18.2586 37.2353 18.52 37.03C18.7906 36.834 19.0846 36.736 19.402 36.736C19.7566 36.736 20.074 36.8153 20.354 36.974C20.6526 37.1327 20.9046 37.352 21.11 37.632C21.3153 37.912 21.4786 38.2433 21.6 38.626C21.7213 38.9993 21.782 39.4193 21.782 39.886C21.782 40.1193 21.7586 40.376 21.712 40.656C21.656 40.936 21.572 41.1973 21.46 41.44C21.3386 41.6827 21.1846 41.8833 20.998 42.042C20.8113 42.2007 20.5826 42.28 20.312 42.28C20.1066 42.28 19.85 42.2473 19.542 42.182C19.2433 42.126 18.926 42.0373 18.59 41.916C18.254 41.7947 17.918 41.6453 17.582 41.468C17.246 41.2907 16.938 41.0853 16.658 40.852C16.3593 41.1973 16.0326 41.4773 15.678 41.692C15.314 41.8973 14.894 42 14.418 42C14.2966 42 14.194 41.944 14.11 41.832C14.0353 41.7293 13.998 41.58 13.998 41.384C13.998 41.1973 14.0353 41.048 14.11 40.936C14.194 40.824 14.2966 40.768 14.418 40.768ZM19.304 37.856C19.136 37.856 18.968 37.9213 18.8 38.052C18.632 38.1733 18.464 38.3413 18.296 38.556C18.128 38.7613 17.9646 38.99 17.806 39.242C17.638 39.494 17.4746 39.7367 17.316 39.97C17.736 40.3153 18.2353 40.586 18.814 40.782C19.3926 40.978 19.9666 41.0993 20.536 41.146C20.62 40.9593 20.6853 40.7773 20.732 40.6C20.7506 40.5067 20.7646 40.404 20.774 40.292C20.7833 40.18 20.788 40.0633 20.788 39.942C20.788 39.5873 20.7413 39.284 20.648 39.032C20.5546 38.7707 20.438 38.5513 20.298 38.374C20.158 38.206 19.9993 38.0753 19.822 37.982C19.6446 37.898 19.472 37.856 19.304 37.856ZM30.5288 42C29.8475 42 29.3155 41.888 28.9328 41.664C28.5595 41.4493 28.2935 41.062 28.1348 40.502C27.8081 40.8753 27.3088 41.1927 26.6368 41.454C25.9648 41.7153 25.0501 41.9673 23.8928 42.21L23.6548 41.174L24.8728 40.88C24.8448 40.3853 24.7888 39.8113 24.7048 39.158C24.6115 38.4953 24.5041 37.8233 24.3828 37.142C24.2521 36.4607 24.1075 35.7933 23.9488 35.14C23.7808 34.4773 23.6128 33.9033 23.4448 33.418L24.3968 33.11C24.5835 33.6793 24.7515 34.2813 24.9008 34.916C25.0501 35.5413 25.1855 36.176 25.3068 36.82C25.4281 37.464 25.5308 38.108 25.6148 38.752C25.6988 39.396 25.7548 40.026 25.7828 40.642C26.1655 40.5113 26.4875 40.3853 26.7488 40.264C27.0195 40.1427 27.2295 40.0073 27.3788 39.858C27.5375 39.718 27.6541 39.5593 27.7288 39.382C27.7941 39.2047 27.8268 38.9993 27.8268 38.766V32.41L28.8208 32.382V38.64C28.8208 39.0973 28.8535 39.466 28.9188 39.746C28.9748 40.026 29.0728 40.2407 29.2128 40.39C29.3435 40.5393 29.5208 40.6373 29.7448 40.684C29.8475 40.712 29.9641 40.7353 30.0948 40.754C30.2348 40.7633 30.3795 40.768 30.5288 40.768V42ZM30.5234 42C30.4021 42 30.2994 41.944 30.2154 41.832C30.1408 41.7293 30.1034 41.58 30.1034 41.384C30.1034 41.1973 30.1408 41.048 30.2154 40.936C30.2994 40.824 30.4021 40.768 30.5234 40.768C31.0741 40.768 31.5781 40.7167 32.0354 40.614C32.5021 40.5207 32.8708 40.3153 33.1414 39.998C33.2441 39.886 33.3281 39.76 33.3934 39.62C33.4681 39.48 33.5381 39.3027 33.6034 39.088C33.6594 38.8733 33.7154 38.6213 33.7714 38.332C33.8274 38.0333 33.8788 37.6693 33.9254 37.24L34.8634 37.352C34.8168 37.8093 34.7514 38.276 34.6674 38.752C34.5741 39.228 34.4668 39.6247 34.3454 39.942C34.5601 40.2313 34.8214 40.4553 35.1294 40.614C35.4281 40.7633 35.7314 40.838 36.0394 40.838C36.3661 40.838 36.6368 40.7727 36.8514 40.642C37.0754 40.5113 37.2668 40.3013 37.4254 40.012C37.5001 39.872 37.5701 39.7133 37.6354 39.536C37.7008 39.3493 37.7568 39.1393 37.8034 38.906C37.9061 38.4487 37.9994 37.8933 38.0834 37.24L39.0214 37.352C38.9841 37.8467 38.9141 38.3273 38.8114 38.794C38.7181 39.27 38.6294 39.6527 38.5454 39.942C38.8161 40.2033 39.1101 40.4273 39.4274 40.614C39.5394 40.6793 39.6421 40.7307 39.7354 40.768C39.8288 40.8053 39.9174 40.838 40.0014 40.866C40.0854 40.8847 40.1601 40.894 40.2254 40.894C40.3654 40.894 40.5054 40.866 40.6454 40.81C40.7761 40.754 40.8974 40.6793 41.0094 40.586C41.1214 40.4833 41.2148 40.3853 41.2894 40.292C41.3548 40.1893 41.3921 40.0867 41.4014 39.984C41.3921 39.3773 41.3548 38.7613 41.2894 38.136C41.2241 37.5107 41.1401 36.918 41.0374 36.358L42.1294 36.134C42.1761 36.386 42.2228 36.6613 42.2694 36.96C42.3068 37.2493 42.3394 37.5433 42.3674 37.842C42.3954 38.1313 42.4188 38.4113 42.4374 38.682C42.4468 38.9433 42.4514 39.158 42.4514 39.326C42.4514 39.5033 42.4468 39.7087 42.4374 39.942C42.4281 40.166 42.3861 40.3713 42.3114 40.558C42.2554 40.7353 42.1574 40.9173 42.0174 41.104C41.8681 41.2813 41.7001 41.4493 41.5134 41.608C41.3361 41.7573 41.1401 41.8787 40.9254 41.972C40.7108 42.0747 40.5054 42.126 40.3094 42.126C39.9641 42.126 39.6048 42.014 39.2314 41.79C38.8488 41.5753 38.4614 41.3047 38.0694 40.978C37.8361 41.314 37.5561 41.58 37.2294 41.776C36.9028 41.9813 36.5061 42.084 36.0394 42.084C35.6194 42.084 35.2134 41.986 34.8214 41.79C34.4201 41.594 34.0608 41.3187 33.7434 40.964C33.4354 41.3187 33.0341 41.58 32.5394 41.748C32.3808 41.804 32.1988 41.8507 31.9934 41.888C31.7881 41.9253 31.5641 41.9533 31.3214 41.972C31.0788 41.9907 30.8128 42 30.5234 42ZM47.5284 35.504C48.2377 35.8867 48.8351 36.2553 49.3204 36.61C49.8151 36.9647 50.2071 37.324 50.4964 37.688C50.7951 38.0613 51.0051 38.4393 51.1264 38.822C51.2477 39.214 51.3084 39.6293 51.3084 40.068C51.3084 40.18 51.2897 40.3107 51.2524 40.46C51.2151 40.6093 51.1637 40.754 51.0984 40.894C51.0331 41.034 50.9537 41.1647 50.8604 41.286C50.7671 41.4073 50.6644 41.5007 50.5524 41.566C50.2071 41.762 49.8384 41.8927 49.4464 41.958C49.0544 42.0233 48.6951 42.056 48.3684 42.056C47.9764 42.056 47.6451 42 47.3744 41.888C47.1037 41.7853 46.8844 41.6453 46.7164 41.468C46.5484 41.2907 46.4317 41.09 46.3664 40.866C46.2917 40.642 46.2544 40.418 46.2544 40.194C46.2544 39.9233 46.2917 39.6573 46.3664 39.396C46.4411 39.1253 46.5437 38.85 46.6744 38.57C46.7957 38.29 46.9404 38.0053 47.1084 37.716C47.2764 37.436 47.4491 37.1513 47.6264 36.862L46.9964 36.484L47.5284 35.504ZM48.4244 40.838C48.6951 40.838 49.0124 40.81 49.3764 40.754C49.7311 40.7073 50.0717 40.5953 50.3984 40.418C50.3704 39.7273 50.1931 39.1347 49.8664 38.64C49.5397 38.1453 49.0404 37.6973 48.3684 37.296C48.2377 37.4733 48.1071 37.6833 47.9764 37.926C47.8364 38.1593 47.7057 38.3927 47.5844 38.626C47.4631 38.8687 47.3651 39.102 47.2904 39.326C47.2157 39.5407 47.1784 39.7413 47.1784 39.928C47.1784 40.0213 47.2017 40.124 47.2484 40.236C47.2857 40.3293 47.3511 40.4273 47.4444 40.53C47.5471 40.6233 47.6731 40.698 47.8224 40.754C47.9904 40.81 48.1911 40.838 48.4244 40.838ZM56.2514 42C55.7474 42 55.3134 41.944 54.9494 41.832C54.5761 41.72 54.2727 41.5333 54.0394 41.272C53.8061 41.0013 53.6334 40.6653 53.5214 40.264C53.4094 39.844 53.3534 39.3353 53.3534 38.738V32.41L54.3474 32.382V38.738C54.3474 38.9433 54.3567 39.13 54.3754 39.298C54.3941 39.466 54.4221 39.6153 54.4594 39.746C54.5341 40.0073 54.6507 40.2173 54.8094 40.376C54.9681 40.5253 55.1641 40.628 55.3974 40.684C55.6307 40.74 55.9154 40.768 56.2514 40.768V42ZM57.1499 33.082C57.3366 32.942 57.5746 32.788 57.8639 32.62C58.1532 32.4613 58.4659 32.298 58.8019 32.13C59.1379 31.9713 59.4786 31.8173 59.8239 31.668C60.1692 31.528 60.4866 31.416 60.7759 31.332L60.9579 32.06C60.7246 32.1253 60.4446 32.2233 60.1179 32.354C59.8006 32.4753 59.4786 32.6153 59.1519 32.774C58.8159 32.9233 58.4986 33.0773 58.1999 33.236C57.8919 33.3947 57.6399 33.5393 57.4439 33.67L57.1499 33.082ZM57.6259 35.56C58.1112 35.8587 58.5406 36.1853 58.9139 36.54C59.2966 36.8853 59.6326 37.2493 59.9219 37.632C60.2112 38.0053 60.4679 38.3787 60.6919 38.752C60.9159 39.1347 61.1212 39.508 61.3079 39.872C61.4106 40.068 61.5179 40.222 61.6299 40.334C61.7326 40.4553 61.8492 40.5487 61.9799 40.614C62.1012 40.6793 62.2366 40.7213 62.3859 40.74C62.5352 40.7587 62.7079 40.768 62.9039 40.768V42C62.6239 42 62.3672 41.986 62.1339 41.958C61.9006 41.93 61.6859 41.86 61.4899 41.748C61.2939 41.6453 61.1072 41.482 60.9299 41.258C60.7526 41.0433 60.5752 40.74 60.3979 40.348L60.0759 41.034C59.4879 41.4447 58.8859 41.706 58.2699 41.818C57.6446 41.9393 56.9726 42 56.2539 42C56.1326 42 56.0299 41.944 55.9459 41.832C55.8712 41.7293 55.8339 41.58 55.8339 41.384C55.8339 41.1973 55.8712 41.048 55.9459 40.936C56.0299 40.824 56.1326 40.768 56.2539 40.768C56.6459 40.768 57.0052 40.754 57.3319 40.726C57.6586 40.7073 57.9712 40.6607 58.2699 40.586C58.5686 40.5207 58.8626 40.418 59.1519 40.278C59.4412 40.1473 59.7399 39.9747 60.0479 39.76C59.8706 39.424 59.6746 39.102 59.4599 38.794C59.2452 38.486 59.0026 38.1873 58.7319 37.898C58.4519 37.6087 58.1346 37.324 57.7799 37.044C57.4159 36.764 56.9959 36.484 56.5199 36.204L56.7019 35.028C57.0659 34.748 57.4626 34.4867 57.8919 34.244C58.3212 34.0013 58.7599 33.7773 59.2079 33.572C59.6559 33.376 60.1086 33.1987 60.5659 33.04C61.0232 32.8813 61.4666 32.7413 61.8959 32.62L62.1339 33.656C61.3126 33.8893 60.5239 34.16 59.7679 34.468C59.0119 34.776 58.2979 35.14 57.6259 35.56ZM62.8984 42C62.7771 42 62.6744 41.944 62.5904 41.832C62.5158 41.7293 62.4784 41.58 62.4784 41.384C62.4784 41.1973 62.5158 41.048 62.5904 40.936C62.6744 40.824 62.7771 40.768 62.8984 40.768C63.4491 40.768 63.9531 40.7167 64.4104 40.614C64.8771 40.5207 65.2458 40.3153 65.5164 39.998C65.6191 39.886 65.7031 39.76 65.7684 39.62C65.8431 39.48 65.9131 39.3027 65.9784 39.088C66.0344 38.8733 66.0904 38.6213 66.1464 38.332C66.2024 38.0333 66.2538 37.6693 66.3004 37.24L67.2384 37.352C67.1918 37.8093 67.1264 38.276 67.0424 38.752C66.9491 39.228 66.8418 39.6247 66.7204 39.942C66.9351 40.2313 67.1964 40.4553 67.5044 40.614C67.8031 40.7633 68.1064 40.838 68.4144 40.838C68.7411 40.838 69.0118 40.7727 69.2264 40.642C69.4504 40.5113 69.6418 40.3013 69.8004 40.012C69.8751 39.872 69.9451 39.7133 70.0104 39.536C70.0758 39.3493 70.1318 39.1393 70.1784 38.906C70.2811 38.4487 70.3744 37.8933 70.4584 37.24L71.3964 37.352C71.3591 37.8467 71.2891 38.3273 71.1864 38.794C71.0931 39.27 71.0044 39.6527 70.9204 39.942C71.1911 40.2033 71.4851 40.4273 71.8024 40.614C71.9144 40.6793 72.0171 40.7307 72.1104 40.768C72.2038 40.8053 72.2924 40.838 72.3764 40.866C72.4604 40.8847 72.5351 40.894 72.6004 40.894C72.7404 40.894 72.8804 40.866 73.0204 40.81C73.1511 40.754 73.2724 40.6793 73.3844 40.586C73.4964 40.4833 73.5898 40.3853 73.6644 40.292C73.7298 40.1893 73.7671 40.0867 73.7764 39.984C73.7671 39.3773 73.7298 38.7613 73.6644 38.136C73.5991 37.5107 73.5151 36.918 73.4124 36.358L74.5044 36.134C74.5511 36.386 74.5978 36.6613 74.6444 36.96C74.6818 37.2493 74.7144 37.5433 74.7424 37.842C74.7704 38.1313 74.7938 38.4113 74.8124 38.682C74.8218 38.9433 74.8264 39.158 74.8264 39.326C74.8264 39.5033 74.8218 39.7087 74.8124 39.942C74.8031 40.166 74.7611 40.3713 74.6864 40.558C74.6304 40.7353 74.5324 40.9173 74.3924 41.104C74.2431 41.2813 74.0751 41.4493 73.8884 41.608C73.7111 41.7573 73.5151 41.8787 73.3004 41.972C73.0858 42.0747 72.8804 42.126 72.6844 42.126C72.3391 42.126 71.9798 42.014 71.6064 41.79C71.2238 41.5753 70.8364 41.3047 70.4444 40.978C70.2111 41.314 69.9311 41.58 69.6044 41.776C69.2778 41.9813 68.8811 42.084 68.4144 42.084C67.9944 42.084 67.5884 41.986 67.1964 41.79C66.7951 41.594 66.4358 41.3187 66.1184 40.964C65.8104 41.3187 65.4091 41.58 64.9144 41.748C64.7558 41.804 64.5738 41.8507 64.3684 41.888C64.1631 41.9253 63.9391 41.9533 63.6964 41.972C63.4538 41.9907 63.1878 42 62.8984 42ZM71.1304 33.04L70.3324 33.852L69.5204 33.04L70.3324 32.214L71.1304 33.04ZM72.0824 34.832L71.2844 35.644L70.4584 34.832L71.2844 34.02L72.0824 34.832ZM70.1924 34.832L69.3944 35.644L68.5824 34.832L69.3944 34.02L70.1924 34.832ZM79.2213 40.838C79.548 40.838 79.8513 40.8333 80.1313 40.824C80.43 40.824 80.7147 40.8193 80.9853 40.81C80.976 40.3153 80.92 39.886 80.8173 39.522C80.7053 39.158 80.57 38.8547 80.4113 38.612C80.2433 38.3787 80.0613 38.206 79.8653 38.094C79.6693 37.982 79.464 37.926 79.2493 37.926C79.0533 37.926 78.8667 37.982 78.6893 38.094C78.5027 38.2153 78.344 38.3693 78.2133 38.556C78.0733 38.752 77.966 38.9667 77.8913 39.2C77.8073 39.4333 77.7653 39.6713 77.7653 39.914C77.7653 40.0633 77.784 40.1987 77.8213 40.32C77.8587 40.432 77.9333 40.5253 78.0453 40.6C78.148 40.684 78.2927 40.7447 78.4793 40.782C78.666 40.8193 78.9133 40.838 79.2213 40.838ZM76.5753 43.876C77.014 44.0253 77.35 44.1233 77.5833 44.17C77.826 44.2073 78.022 44.226 78.1713 44.226C78.33 44.226 78.5307 44.1793 78.7733 44.086C79.0067 44.002 79.254 43.876 79.5153 43.708C79.7673 43.54 80.0147 43.3393 80.2573 43.106C80.4907 42.8727 80.6913 42.616 80.8593 42.336C80.878 42.2893 80.892 42.224 80.9013 42.14C80.9013 42.1027 80.9013 42.0653 80.9013 42.028C80.9013 42 80.906 41.9767 80.9153 41.958C80.6167 41.9673 80.318 41.9767 80.0193 41.986C79.7207 41.9953 79.4267 42 79.1373 42C78.792 42 78.4793 41.972 78.1993 41.916C77.9193 41.86 77.6813 41.7573 77.4853 41.608C77.28 41.468 77.126 41.272 77.0233 41.02C76.9113 40.768 76.8553 40.446 76.8553 40.054C76.8553 39.606 76.9253 39.1813 77.0653 38.78C77.2053 38.388 77.392 38.0427 77.6253 37.744C77.8587 37.4547 78.12 37.2213 78.4093 37.044C78.708 36.876 79.002 36.792 79.2913 36.792C79.7113 36.792 80.0893 36.8947 80.4253 37.1C80.752 37.3053 81.032 37.5947 81.2653 37.968C81.4893 38.3413 81.662 38.794 81.7833 39.326C81.9047 39.858 81.9653 40.446 81.9653 41.09C81.9653 41.566 81.9 42 81.7693 42.392C81.648 42.784 81.48 43.134 81.2653 43.442C81.06 43.75 80.8313 44.0207 80.5793 44.254C80.318 44.4873 80.0613 44.6787 79.8093 44.828C79.5573 44.9773 79.324 45.0893 79.1093 45.164C78.8853 45.2387 78.7033 45.276 78.5633 45.276C78.442 45.276 78.3113 45.2667 78.1713 45.248C78.0313 45.2293 77.8727 45.1967 77.6953 45.15C77.518 45.1033 77.3127 45.0333 77.0793 44.94C76.846 44.856 76.5753 44.744 76.2673 44.604L76.5753 43.876ZM87.4644 42C87.1471 42 86.8717 41.9393 86.6384 41.818C86.4051 41.6873 86.1997 41.5053 86.0224 41.272V41.706C86.0131 42.0793 85.9151 42.476 85.7284 42.896C85.5324 43.316 85.2944 43.6987 85.0144 44.044C84.7344 44.3893 84.4311 44.6833 84.1044 44.926C83.7777 45.1593 83.4744 45.276 83.1944 45.276C83.1011 45.276 82.9984 45.2667 82.8864 45.248C82.7744 45.2293 82.6484 45.2013 82.5084 45.164C82.2284 45.0987 81.8644 44.9773 81.4164 44.8L81.6964 44.016C81.9484 44.1 82.1677 44.156 82.3544 44.184C82.5504 44.212 82.6951 44.226 82.7884 44.226C83.0031 44.226 83.2364 44.142 83.4884 43.974C83.7404 43.8153 83.9831 43.6053 84.2164 43.344C84.4404 43.092 84.6317 42.812 84.7904 42.504C84.9397 42.196 85.0144 41.902 85.0144 41.622C85.0144 41.3513 84.9957 41.048 84.9584 40.712C84.9211 40.376 84.8744 40.026 84.8184 39.662C84.7624 39.298 84.7017 38.9293 84.6364 38.556C84.5711 38.1733 84.5011 37.8093 84.4264 37.464L85.4344 37.254L85.7704 39.004C85.8171 39.2373 85.8871 39.4613 85.9804 39.676C86.0644 39.8907 86.1717 40.0773 86.3024 40.236C86.4331 40.3853 86.5964 40.5113 86.7924 40.614C86.9791 40.7167 87.2031 40.768 87.4644 40.768V42ZM93.0668 39.074C92.7401 39.1487 92.4088 39.2093 92.0728 39.256C91.7368 39.3027 91.3728 39.326 90.9808 39.326C90.3368 39.326 89.8468 39.186 89.5108 38.906C89.1748 38.6353 89.0068 38.1733 89.0068 37.52C89.0068 37.1373 89.0675 36.7687 89.1888 36.414C89.3008 36.0593 89.4595 35.7373 89.6648 35.448C89.8701 35.168 90.1128 34.9393 90.3928 34.762C90.6728 34.594 90.9715 34.51 91.2888 34.51C91.6528 34.51 92.0028 34.5987 92.3388 34.776C92.6748 34.9533 92.9688 35.2147 93.2208 35.56C93.4728 35.9147 93.6735 36.3533 93.8228 36.876C93.9721 37.3987 94.0468 38.01 94.0468 38.71C94.0468 38.7753 94.0468 38.8687 94.0468 38.99C94.0375 39.102 94.0328 39.2233 94.0328 39.354C94.0235 39.4847 94.0141 39.606 94.0048 39.718C93.9955 39.8393 93.9861 39.9373 93.9768 40.012C93.9208 40.3387 93.8088 40.6233 93.6408 40.866C93.4728 41.0993 93.2721 41.2673 93.0388 41.37C92.4041 41.622 91.6388 41.79 90.7428 41.874C89.8375 41.958 88.7455 42 87.4668 42C87.3455 42 87.2428 41.944 87.1588 41.832C87.0841 41.7293 87.0468 41.58 87.0468 41.384C87.0468 41.1973 87.0841 41.048 87.1588 40.936C87.2428 40.824 87.3455 40.768 87.4668 40.768C88.6988 40.768 89.7721 40.7353 90.6868 40.67C91.5921 40.6047 92.3715 40.446 93.0248 40.194C93.0435 40.0073 93.0575 39.8113 93.0668 39.606C93.0668 39.41 93.0668 39.2327 93.0668 39.074ZM91.2328 35.63C91.0648 35.63 90.9015 35.6767 90.7428 35.77C90.5935 35.8727 90.4535 36.0033 90.3228 36.162C90.2015 36.3207 90.1035 36.5073 90.0288 36.722C89.9541 36.9273 89.9168 37.1513 89.9168 37.394C89.9168 37.5153 89.9261 37.632 89.9448 37.744C89.9635 37.8373 90.0148 37.9213 90.0988 37.996C90.1828 38.0613 90.3135 38.1173 90.4908 38.164C90.6588 38.2013 90.8968 38.22 91.2048 38.22C91.4755 38.22 91.7788 38.2013 92.1148 38.164C92.4415 38.1267 92.7401 38.08 93.0108 38.024C92.9828 37.744 92.9315 37.4593 92.8568 37.17C92.7728 36.89 92.6561 36.6333 92.5068 36.4C92.3575 36.176 92.1801 35.9893 91.9748 35.84C91.7601 35.7 91.5128 35.63 91.2328 35.63ZM92.1708 32.41L91.3728 33.222L90.5608 32.41L91.3728 31.598L92.1708 32.41Z" fill="#382352"/>
</svg>
