<svg width="61" height="58" viewBox="0 0 61 58" fill="none" xmlns="http://www.w3.org/2000/svg">
<path d="M22.229 36.4721C7.627 28.7187 2.70407 19.5198 0.0505464 12.3882C4.38717 24.9583 11.8878 31.5087 21.8095 37.4779C23.5279 38.6505 23.5633 38.6758 14.3745 46.7223C12.6055 48.2689 12.4185 48.4306 12.1051 48.9563L12.1456 49.1029C15.7746 45.8883 19.9191 43.3308 23.5785 40.1516C24.6904 39.5552 24.6904 39.5552 28.1274 43.4319C30.3159 45.9035 38.2815 54.2128 48.9007 57.2403C39.0599 53.9702 32.181 46.7576 26.7526 40.1314C26.1208 38.8325 26.1208 38.8325 30.9881 38.1097C36.6692 37.2555 48.1122 34.3139 60.8592 24.2608C50.1238 32.09 40.278 35.911 26.8739 37.4526C21.6629 37.2707 29.5426 0.374021 29.6285 0C26.9902 10.1087 24.4579 21.4102 23.8211 35.8302C23.4673 37.114 22.2795 36.4973 22.234 36.4721M29.6184 41.673C29.6184 42.0874 34.3644 46.7273 34.8244 47.1721C35.6684 47.8949 37.0887 49.1029 47.6321 50.0682C48.2251 50.1065 48.8206 50.0742 49.4061 49.9722C50.5484 49.7549 53.5102 48.8249 60.5257 45.0038C57.953 43.1084 57.5588 42.8153 54.3392 40.1365C53.5819 39.5308 52.654 39.1773 51.6856 39.1256C48.2972 38.8291 44.9322 38.3091 41.6123 37.5689C37.675 36.745 34.1875 38.7667 30.4675 39.3429L30.3058 39.4188L30.2654 39.6361C30.2654 39.6361 36.093 42.7091 45.9085 44.6904C41.2687 44.185 36.8865 43.6796 30.0278 41.5416C29.9001 41.5309 29.772 41.5572 29.6588 41.6174C29.6588 41.6174 29.6336 41.6578 29.6336 41.673M2.10766 29.2696C1.25884 30.1537 0.548283 31.1607 0 32.2568C2.56255 36.3002 2.61309 36.3609 5.68613 39.8736C6.03217 40.2404 6.40742 40.5785 6.80819 40.8845C8.55193 42.1582 12.7925 43.1337 14.1875 43.4572C15.532 43.6745 15.532 43.6745 19.8231 39.7473C20 39.3227 20 39.3227 16.2244 38.8426C13.2054 38.3938 10.2489 37.5948 7.41472 36.462C11.2042 37.2953 15.0906 37.6015 18.9639 37.3717L19.1105 37.3111C19.1439 37.2317 19.1457 37.1425 19.1157 37.0617C19.0856 36.981 19.0259 36.9147 18.9487 36.8764C14.789 34.137 14.6273 34.0308 12.4387 32.2163C11.7851 31.6331 11.002 31.2138 10.1542 30.9932C7.88294 30.5954 5.65898 29.9636 3.51783 29.1079C3.29645 28.9836 3.04199 28.9309 2.78946 28.9572C2.53693 28.9834 2.29874 29.0873 2.10766 29.2545M26.9346 26.2219C26.884 26.8688 26.8385 27.5107 26.7981 28.1476C26.7577 28.7844 26.7223 29.4162 26.692 30.048C26.6616 30.6798 26.6364 31.2964 26.6111 31.9131C26.5858 32.5297 26.5706 33.1413 26.5605 33.7478C26.9447 35.7038 36.9219 23.7048 37.023 23.5785C34.6281 27.6767 31.9388 31.5957 28.9765 35.3045C28.9503 35.3529 28.9371 35.4072 28.9381 35.4622C28.9392 35.5171 28.9544 35.5709 28.9824 35.6183C29.0104 35.6656 29.0502 35.7049 29.0979 35.7323C29.1455 35.7596 29.1995 35.7742 29.2545 35.7746C34.233 34.8901 34.233 34.8901 36.9522 34.142C38.5595 33.6366 39.53 33.3081 44.7915 24.0637C45.292 23.1164 45.4946 22.0399 45.3728 20.9755C45.2767 20.0859 45.1757 19.1913 45.0746 18.2916C44.9735 17.392 44.8724 16.4923 44.7662 15.5926C44.6601 14.6929 44.5489 13.7882 44.4428 12.8886C44.3366 11.9889 44.2204 11.0842 44.1041 10.1845C41.5744 11.6368 38.9367 12.8923 36.2143 13.9399C35.541 14.2054 34.9388 14.6242 34.4554 15.163C32.181 17.8216 30.3058 20.7885 28.0617 23.4673C27.3913 24.2436 26.9874 25.2143 26.9093 26.237M13.763 4.53374C13.3637 5.31211 12.9745 6.10058 12.6005 6.88906C12.2264 7.67753 11.8676 8.47106 11.5239 9.2646C11.1802 10.0581 10.8517 10.8517 10.5433 11.6452C10.235 12.4387 9.93177 13.2373 9.65378 14.0308C9.35052 14.9962 8.64291 17.2454 11.8625 26.7779C12.368 28.0212 12.9998 29.5628 19.8433 33.7478L20.0152 33.8034L20.1921 33.7225C20.4044 32.5196 19.07 31.0943 18.5393 29.9924C16.8411 26.4544 15.8555 22.4109 15.0619 19.1913C16.5782 23.3409 18.0389 27.2782 22.1026 33.121C22.3958 33.394 22.5171 33.2929 22.6384 33.121C22.6737 32.4488 22.7041 31.8322 22.7445 31.2105C22.7849 30.5888 22.8254 29.9621 22.8709 29.3303C22.9164 28.6985 22.977 28.0566 23.0377 27.4147C23.0983 26.7728 23.164 26.1259 23.2348 25.4789C23.3387 24.4197 23.1645 23.3518 22.7293 22.3806C21.3996 19.3478 20.3572 16.1969 19.6159 12.9694C19.4418 12.0622 19.0202 11.2208 18.3978 10.5383C16.6339 8.71271 15.0825 6.69327 13.7731 4.51857M18.7213 47.2328C18.8527 47.7382 18.9942 48.2436 19.1458 48.7086C19.2975 49.1736 19.4541 49.6336 19.6209 50.0632C19.7877 50.4928 19.9646 50.8971 20.1516 51.2863C20.3387 51.6755 20.5307 52.0394 20.7329 52.3882C21.673 53.8236 25.7872 55.9717 29.4769 57.4425C30.8329 57.2452 32.1526 56.8501 33.394 56.2699C33.8994 56.0121 34.046 55.7645 33.955 55.3146C33.859 54.9861 33.763 54.6424 33.677 54.2734C33.5911 53.9045 33.4951 53.5102 33.4142 53.0958C33.3333 52.6813 33.2424 52.2416 33.1666 51.7817C33.0907 51.3217 33.0099 50.8365 32.9391 50.326C32.7591 49.5354 32.313 48.8306 31.6755 48.3295C29.7966 46.647 28.0242 44.8492 26.3685 42.9467C25.863 42.4968 25.4941 42.143 25.863 48.3144C25.9433 49.7668 26.1206 51.2122 26.3937 52.6409C24.993 49.4368 24.0373 46.0561 23.5532 42.5929C23.5225 42.4886 23.453 42.4001 23.3589 42.3455C23.2649 42.291 23.1535 42.2746 23.0478 42.2997C21.6376 43.2803 20.4903 44.5641 19.1711 45.6406C18.9445 45.8334 18.7795 46.0885 18.6968 46.3743C18.6142 46.6601 18.6174 46.9639 18.7061 47.2479" fill="#FDC80A"/>
</svg>
