<svg width="80" height="51" viewBox="0 0 80 51" fill="none" xmlns="http://www.w3.org/2000/svg">
<path d="M73.5493 0H71.3203V15.7948H73.5493V0Z" fill="#382352"/>
<path d="M53.2272 3.91159C53.0655 3.86105 52.7875 3.8004 52.4236 3.72964V3.69931L51.0083 3.4466L50.7809 3.4011H50.7354L48.6227 3.02203C48.0042 2.90934 47.3685 2.93409 46.7607 3.09452C46.1528 3.25495 45.5877 3.54713 45.1054 3.95035C44.6231 4.35357 44.2353 4.85796 43.9697 5.42775C43.7041 5.99754 43.5671 6.61879 43.5684 7.24745V13.2621C42.6737 13.2621 38.514 13.2116 38.0541 13.1661C37.6726 13.1268 37.3176 12.9523 37.0535 12.6743C36.7893 12.3962 36.6333 12.0328 36.6136 11.6498V9.73419C36.5479 6.39833 35.7897 5.58963 33.6063 4.973C32.4741 4.65458 26.4999 3.6791 22.3098 2.99676L21.5719 2.86535C20.9541 2.75189 20.319 2.77575 19.7115 2.93525C19.104 3.09475 18.539 3.38597 18.0567 3.78825C17.5743 4.19054 17.1864 4.69403 16.9204 5.26302C16.6544 5.83202 16.5169 6.45257 16.5176 7.08066V13.2975C15.1226 13.2975 10.1339 13.2419 9.37579 13.1661C8.96427 13.1201 8.587 12.9152 8.32449 12.5949C8.27732 10.9102 8.14759 8.94403 7.93531 6.69653L5.74172 7.33843L6.80819 14.5611C6.28179 15.6529 5.47185 16.5833 4.46298 17.255C3.5687 17.8581 2.50863 18.1673 1.43038 18.1395H0V20.4797H1.03614C4.91281 20.4797 7.87971 18.2507 8.30427 14.7026C8.8097 15.3293 13.5861 15.8146 16.4215 15.8146H26.7829C30.7961 15.7741 32.9239 15.5416 34.1319 15.016C34.5818 14.8303 34.9717 14.5242 35.259 14.1315L35.441 13.904H35.9161L36.0425 14.2224C36.3558 15.0311 40.4246 15.7387 43.5936 15.8146H46.7374C50.5433 15.7842 52.56 15.5618 53.7074 15.0615C54.1364 14.8883 54.5079 14.5974 54.7789 14.2224L56.0879 12.5949V8.43017C56.0222 5.26616 55.2995 4.4979 53.2272 3.91159ZM26.8385 13.0094L26.4948 13.0549C25.5699 13.1358 24.3771 13.2116 23.3763 13.2672L21.951 13.2975C21.3091 13.2975 20.7683 13.2469 20.278 13.2015C19.8351 13.1658 19.422 12.9643 19.1212 12.6373C18.8204 12.3103 18.6541 11.8818 18.6556 11.4375V7.95001V7.09077C18.6542 6.78046 18.7213 6.47366 18.8519 6.1922C18.9826 5.91073 19.1736 5.6615 19.4115 5.46223C19.6494 5.26295 19.9283 5.11853 20.2283 5.03921C20.5283 4.9599 20.8421 4.94765 21.1473 5.00333L23.2499 5.38241H23.2954C24.4124 5.59974 25.2767 5.77664 25.6457 5.88784C25.9821 5.97853 26.2805 6.17478 26.4971 6.44773C26.7136 6.72068 26.8368 7.05593 26.8486 7.40414C26.8486 7.66697 26.8385 12.9841 26.8385 12.9841V13.0094ZM34.2937 13.0094L33.9348 13.0549C32.9543 13.1408 31.7008 13.2217 30.6495 13.2722C29.8458 13.2722 29.1029 13.3076 28.6278 13.3228H28.3548L29.0624 12.4433V8.28865C29.0637 7.63761 29.0044 6.98787 28.8855 6.34778C30.8668 6.71169 32.4842 7.03012 33.0452 7.17669C33.3987 7.26887 33.7131 7.47257 33.9416 7.75756C34.1701 8.04255 34.3007 8.39363 34.3139 8.7587C34.3088 9.07207 34.2937 12.9841 34.2937 12.9841V13.0094ZM53.8792 13.156L53.5305 13.1913C52.6055 13.2722 51.4177 13.3531 50.422 13.4087L48.4761 13.4491H47.3237H45.6811V7.21713C45.6812 6.90701 45.7495 6.60072 45.8811 6.31989C46.0126 6.03906 46.2043 5.79056 46.4424 5.59193C46.6806 5.39331 46.9595 5.24941 47.2594 5.17041C47.5592 5.09141 47.8728 5.07923 48.1779 5.13474L50.2805 5.50371H50.321C51.4481 5.71599 52.3073 5.88784 52.6763 6.00914C53.0139 6.09764 53.3137 6.29329 53.5306 6.56671C53.7475 6.84013 53.8698 7.17656 53.8792 7.52544C53.8893 7.80343 53.8792 13.156 53.8792 13.156Z" fill="#382352"/>
<path d="M66.0486 3.91168C65.8818 3.86619 63.8348 3.44668 63.8348 3.44668C63.7539 3.44668 63.6781 3.41635 63.5972 3.40119H63.5517L59.8823 2.6582L58.4924 4.51314C58.4828 4.52674 58.4768 4.54248 58.4748 4.55897C58.4728 4.57546 58.4749 4.59219 58.4808 4.60768C58.4868 4.62317 58.4966 4.63694 58.5092 4.64778C58.5217 4.65862 58.5368 4.66619 58.553 4.66983L60.9437 5.12977H60.9791L63.0817 5.49874H63.1221C64.2442 5.71102 65.1085 5.88792 65.4774 6.00417C65.8143 6.09414 66.1131 6.29019 66.3298 6.5633C66.5464 6.8364 66.6694 7.17203 66.6804 7.52047C66.6804 7.82373 66.6804 13.151 66.6804 13.151L66.3316 13.1864C65.4067 13.2672 64.2189 13.3481 63.2232 13.4037L61.2773 13.4442H60.1249H59.0382H58.5328H58.4772L57.2035 15.1778C57.0114 15.4305 56.6374 15.7995 56.9558 15.7944H59.5538C63.3597 15.7641 65.3764 15.5417 66.5237 15.0464C66.953 14.8711 67.3243 14.5786 67.5952 14.2023L68.8184 12.686C68.8769 12.619 68.9076 12.5323 68.9043 12.4434V8.43025C68.8386 5.26624 68.1209 4.49798 66.0486 3.91168Z" fill="#382352"/>
<path d="M79.9984 2.08744L77.9211 0L75.8438 2.08744L77.9211 4.16477L79.9984 2.08744Z" fill="#382352"/>
<path d="M77.0655 7.33974L78.1218 14.5624C77.5954 15.6542 76.7855 16.5846 75.7766 17.2563C74.8828 17.8603 73.8224 18.1696 72.744 18.1409H71.3086V20.481H72.3447C76.5348 20.481 79.6735 17.878 79.6735 13.8143C79.6735 11.8836 79.5371 9.51311 79.2641 6.73828L77.0655 7.33974Z" fill="#382352"/>
<path d="M19.1815 44.169C19.0042 44.2904 18.7895 44.407 18.5375 44.519C18.2855 44.6404 18.0055 44.7477 17.6975 44.841C17.3895 44.9344 17.0582 45.009 16.7035 45.065C16.3582 45.121 15.9942 45.149 15.6115 45.149C14.5195 45.149 13.6702 44.8924 13.0635 44.379C12.4475 43.875 12.1395 43.0864 12.1395 42.013C12.1395 41.397 12.2422 40.725 12.4475 39.997C12.6435 39.269 12.9049 38.443 13.2315 37.519L14.0295 37.827C13.7682 38.5924 13.5442 39.311 13.3575 39.983C13.1709 40.6457 13.0775 41.2244 13.0775 41.719C13.0775 42.4564 13.3202 42.9977 13.8055 43.343C14.2909 43.6977 14.9442 43.875 15.7655 43.875C16.0642 43.875 16.3629 43.8517 16.6615 43.805C16.9695 43.7677 17.2682 43.707 17.5575 43.623C17.8469 43.5484 18.1222 43.455 18.3835 43.343C18.6355 43.231 18.8549 43.1097 19.0415 42.979C19.0882 42.811 19.1209 42.6244 19.1395 42.419C19.1582 42.2137 19.1675 41.9804 19.1675 41.719C19.1675 41.3644 19.1489 40.9724 19.1115 40.543C19.0742 40.1137 19.0182 39.6844 18.9435 39.255C18.8782 38.8257 18.8082 38.4104 18.7335 38.009C18.6682 37.6077 18.5982 37.253 18.5235 36.945L19.5595 36.735L19.8395 38.331C19.8862 38.583 19.9515 38.821 20.0355 39.045C20.1195 39.2784 20.2315 39.479 20.3715 39.647C20.5115 39.8244 20.6795 39.9644 20.8755 40.067C21.0622 40.179 21.2862 40.235 21.5475 40.235V41.481C21.2302 41.481 20.9595 41.425 20.7355 41.313C20.5022 41.2104 20.2969 41.0377 20.1195 40.795C20.1289 40.963 20.1335 41.131 20.1335 41.299V41.803C20.1242 42.0364 20.1055 42.265 20.0775 42.489C20.0402 42.7224 19.9889 42.9417 19.9235 43.147C19.8582 43.3617 19.7602 43.553 19.6295 43.721C19.5082 43.8984 19.3589 44.0477 19.1815 44.169ZM16.7875 35.321L15.9895 36.133L15.1775 35.321L15.9895 34.509L16.7875 35.321ZM21.5511 41.481C21.4298 41.481 21.3271 41.425 21.2431 41.313C21.1685 41.2104 21.1311 41.061 21.1311 40.865C21.1311 40.6784 21.1685 40.529 21.2431 40.417C21.3271 40.305 21.4298 40.249 21.5511 40.249C22.0738 40.249 22.5358 40.2397 22.9371 40.221C23.3478 40.2024 23.6978 40.165 23.9871 40.109C24.2765 40.0624 24.5238 39.997 24.7291 39.913C24.9345 39.8384 25.1071 39.745 25.2471 39.633C25.2658 38.9237 25.2425 38.247 25.1771 37.603C25.1025 36.9684 25.0138 36.3804 24.9111 35.839L26.0031 35.615C26.1058 36.119 26.1851 36.6464 26.2411 37.197C26.2878 37.7477 26.3111 38.2704 26.3111 38.765C26.3111 38.9424 26.2971 39.1384 26.2691 39.353C26.2318 39.5584 26.1805 39.7544 26.1151 39.941C26.0498 40.137 25.9518 40.3144 25.8211 40.473C25.6998 40.641 25.5458 40.781 25.3591 40.893C25.2098 40.9864 25.0418 41.0657 24.8551 41.131C24.6591 41.2057 24.4165 41.2664 24.1271 41.313C23.8378 41.369 23.4878 41.411 23.0771 41.439C22.6665 41.467 22.1578 41.481 21.5511 41.481ZM25.1351 43.679L24.3371 44.491L23.5111 43.693L24.3371 42.867L25.1351 43.679ZM23.2451 43.679L22.4471 44.491L21.6351 43.693L22.4471 42.867L23.2451 43.679ZM35.0643 41.481C34.383 41.481 33.851 41.369 33.4683 41.145C33.095 40.9304 32.829 40.543 32.6703 39.983C32.3437 40.3564 31.8443 40.6737 31.1723 40.935C30.5003 41.1964 29.5857 41.4484 28.4283 41.691L28.1903 40.655L29.4083 40.361C29.3803 39.8664 29.3243 39.2924 29.2403 38.639C29.147 37.9764 29.0397 37.3044 28.9183 36.623C28.7877 35.9417 28.643 35.2744 28.4843 34.621C28.3163 33.9584 28.1483 33.3844 27.9803 32.899L28.9323 32.591C29.119 33.1604 29.287 33.7624 29.4363 34.397C29.5857 35.0224 29.721 35.657 29.8423 36.301C29.9637 36.945 30.0663 37.589 30.1503 38.233C30.2343 38.877 30.2903 39.507 30.3183 40.123C30.701 39.9924 31.023 39.8664 31.2843 39.745C31.555 39.6237 31.765 39.4884 31.9143 39.339C32.073 39.199 32.1897 39.0404 32.2643 38.863C32.3297 38.6857 32.3623 38.4804 32.3623 38.247V31.891L33.3563 31.863V38.121C33.3563 38.5784 33.389 38.947 33.4543 39.227C33.5103 39.507 33.6083 39.7217 33.7483 39.871C33.879 40.0204 34.0563 40.1184 34.2803 40.165C34.383 40.193 34.4997 40.2164 34.6303 40.235C34.7703 40.2444 34.915 40.249 35.0643 40.249V41.481ZM35.059 40.249C35.2456 40.249 35.451 40.235 35.675 40.207C35.8896 40.1884 36.0996 40.151 36.305 40.095C36.5196 40.0484 36.7156 39.983 36.893 39.899C37.0703 39.8244 37.215 39.7357 37.327 39.633C37.3456 38.9237 37.3223 38.247 37.257 37.603C37.1823 36.9684 37.0936 36.3804 36.991 35.839L38.069 35.615C38.1716 36.119 38.251 36.6464 38.307 37.197C38.3536 37.757 38.377 38.2844 38.377 38.779C38.377 39.227 38.2976 39.6424 38.139 40.025C37.9803 40.4077 37.7376 40.7064 37.411 40.921C37.1683 41.089 36.837 41.2244 36.417 41.327C35.9876 41.4297 35.535 41.481 35.059 41.481C34.9376 41.481 34.835 41.425 34.751 41.313C34.6763 41.2104 34.639 41.061 34.639 40.865C34.639 40.6784 34.6763 40.529 34.751 40.417C34.835 40.305 34.9376 40.249 35.059 40.249ZM38.097 33.473L37.299 34.285L36.487 33.473L37.299 32.661L38.097 33.473ZM41.1726 33.403C41.2099 33.5804 41.2426 33.7577 41.2706 33.935C41.3079 34.1124 41.3359 34.285 41.3546 34.453C41.4013 34.789 41.4293 35.125 41.4386 35.461C41.4573 35.797 41.4713 36.1424 41.4806 36.497C41.4806 36.8424 41.4806 37.2204 41.4806 37.631V41.481H40.4866V37.631C40.4866 37.239 40.4866 36.875 40.4866 36.539C40.4773 36.2124 40.4633 35.895 40.4446 35.587C40.4353 35.279 40.4073 34.9664 40.3606 34.649C40.3139 34.341 40.2533 34.005 40.1786 33.641L41.1726 33.403ZM42.8666 31.863C42.5026 31.919 42.2133 31.9517 41.9986 31.961C41.7746 31.9797 41.5926 31.989 41.4526 31.989C40.8086 31.989 40.2393 31.9004 39.7446 31.723L39.3106 32.675L38.6386 32.367L39.0586 31.485C39.2266 31.121 39.4413 30.939 39.7026 30.939C39.8053 30.939 39.9033 30.9484 39.9966 30.967C40.0899 30.995 40.2066 31.023 40.3466 31.051C40.4773 31.0884 40.6359 31.1164 40.8226 31.135C40.9999 31.163 41.2193 31.177 41.4806 31.177C41.6113 31.177 41.7746 31.1724 41.9706 31.163C42.1759 31.1537 42.4513 31.1304 42.7966 31.093L42.8666 31.863ZM48.7769 44.449C47.6849 44.449 46.8542 44.1924 46.2849 43.679C45.7062 43.175 45.4169 42.3864 45.4169 41.313C45.4169 40.697 45.5195 40.025 45.7249 39.297C45.9209 38.569 46.1822 37.743 46.5089 36.819L47.3069 37.127C47.0455 37.8924 46.8215 38.611 46.6349 39.283C46.4482 39.9457 46.3549 40.5244 46.3549 41.019C46.3549 41.7564 46.5789 42.2977 47.0269 42.643C47.4842 42.9977 48.1235 43.175 48.9449 43.175C49.2809 43.175 49.6262 43.1377 49.9809 43.063C50.3355 42.9884 50.6762 42.8717 51.0029 42.713C51.3295 42.5637 51.6375 42.377 51.9269 42.153C52.2255 41.9384 52.4775 41.6817 52.6829 41.383C52.6175 41.2897 52.4075 41.1964 52.0529 41.103L50.3169 40.669C50.1769 40.6317 50.0509 40.5897 49.9389 40.543C49.8362 40.4964 49.7475 40.4497 49.6729 40.403C49.5982 40.347 49.5375 40.2864 49.4909 40.221C49.3602 40.025 49.2949 39.8104 49.2949 39.577C49.2949 39.4837 49.2995 39.381 49.3089 39.269C49.3275 39.157 49.3555 39.0357 49.3929 38.905C49.4582 38.6437 49.5515 38.3684 49.6729 38.079C49.7942 37.799 49.9435 37.519 50.1209 37.239C50.2889 36.959 50.4802 36.707 50.6949 36.483C50.9095 36.2684 51.1429 36.091 51.3949 35.951C51.6469 35.811 51.9175 35.741 52.2069 35.741C52.5149 35.741 52.8229 35.8157 53.1309 35.965C53.4389 36.1237 53.7655 36.3384 54.1109 36.609L53.6769 37.337C53.3689 37.1504 53.1029 37.015 52.8789 36.931C52.6549 36.8564 52.4449 36.819 52.2489 36.819C52.0155 36.819 51.7869 36.917 51.5629 37.113C51.3295 37.309 51.1195 37.5377 50.9329 37.799C50.7462 38.0604 50.5969 38.3264 50.4849 38.597C50.3635 38.8584 50.3029 39.0684 50.3029 39.227C50.3215 39.3857 50.4382 39.4884 50.6529 39.535L52.6829 40.067C52.9815 40.1417 53.2195 40.2584 53.3969 40.417C53.5649 40.585 53.6489 40.7904 53.6489 41.033C53.6489 41.2384 53.5882 41.4764 53.4669 41.747C53.3455 42.0177 53.2149 42.251 53.0749 42.447C52.8695 42.7457 52.6035 43.0164 52.2769 43.259C51.9502 43.511 51.5955 43.7257 51.2129 43.903C50.8302 44.0804 50.4289 44.2157 50.0089 44.309C49.5982 44.4024 49.1875 44.449 48.7769 44.449ZM57.1017 36.399C57.1764 36.7444 57.2557 37.1084 57.3397 37.491C57.4144 37.883 57.4844 38.275 57.5497 38.667C57.6057 39.0684 57.6571 39.465 57.7037 39.857C57.7411 40.249 57.7597 40.6364 57.7597 41.019C57.7597 41.4204 57.6664 41.8404 57.4797 42.279C57.2931 42.7177 57.0597 43.119 56.7797 43.483C56.4904 43.8564 56.1777 44.1597 55.8417 44.393C55.5151 44.6357 55.2024 44.757 54.9037 44.757C54.8104 44.757 54.7077 44.7477 54.5957 44.729C54.4837 44.7104 54.3577 44.6824 54.2177 44.645C53.9377 44.5797 53.5737 44.4584 53.1257 44.281L53.4057 43.497C53.6577 43.581 53.8771 43.637 54.0637 43.665C54.2597 43.693 54.4044 43.707 54.4977 43.707C54.7124 43.707 54.9457 43.623 55.1977 43.455C55.4591 43.2964 55.7017 43.0864 55.9257 42.825C56.1497 42.573 56.3411 42.293 56.4997 41.985C56.6491 41.677 56.7237 41.383 56.7237 41.103C56.7237 40.8324 56.7051 40.5197 56.6677 40.165C56.6211 39.8104 56.5697 39.437 56.5137 39.045C56.4484 38.653 56.3784 38.247 56.3037 37.827C56.2197 37.4164 56.1357 37.015 56.0517 36.623L57.1017 36.399ZM62.6873 41.481C62.1833 41.481 61.7493 41.425 61.3853 41.313C61.012 41.201 60.7086 41.0144 60.4753 40.753C60.242 40.4824 60.0693 40.1464 59.9573 39.745C59.8453 39.325 59.7893 38.8164 59.7893 38.219V31.891L60.7833 31.863V38.219C60.7833 38.4244 60.7926 38.611 60.8113 38.779C60.83 38.947 60.858 39.0964 60.8953 39.227C60.97 39.4884 61.0866 39.6984 61.2453 39.857C61.404 40.0064 61.6 40.109 61.8333 40.165C62.0666 40.221 62.3513 40.249 62.6873 40.249V41.481ZM63.9918 40.249C64.1598 39.9037 64.2952 39.6144 64.3978 39.381C64.5005 39.1477 64.5798 38.877 64.6358 38.569C64.6918 38.2704 64.7292 37.8784 64.7478 37.393C64.7665 36.917 64.7758 36.259 64.7758 35.419V31.891L65.7698 31.863V35.349C65.7698 35.741 65.7558 36.133 65.7278 36.525C65.6905 36.917 65.6345 37.2717 65.5598 37.589C65.7558 37.309 65.9612 37.0524 66.1758 36.819C66.3905 36.5857 66.6005 36.385 66.8058 36.217C67.0112 36.049 67.2165 35.9184 67.4218 35.825C67.6178 35.7317 67.8045 35.685 67.9818 35.685C68.4485 35.685 68.8825 35.797 69.2838 36.021C69.6945 36.2544 70.0538 36.5484 70.3618 36.903C70.6698 37.267 70.9125 37.6637 71.0898 38.093C71.2672 38.5224 71.3558 38.933 71.3558 39.325C71.3558 39.5304 71.2952 39.745 71.1738 39.969C71.3325 40.0904 71.5285 40.165 71.7618 40.193C71.9952 40.2304 72.2005 40.249 72.3778 40.249V41.481C72.0885 41.481 71.7852 41.439 71.4678 41.355C71.1505 41.2804 70.8472 41.089 70.5578 40.781C70.2125 40.9304 69.8158 41.047 69.3678 41.131C68.9105 41.2244 68.4485 41.2944 67.9818 41.341C67.5058 41.397 67.0438 41.4344 66.5958 41.453C66.1478 41.4717 65.7605 41.481 65.4338 41.481H62.6898C62.5685 41.481 62.4658 41.425 62.3818 41.313C62.3072 41.2104 62.2698 41.061 62.2698 40.865C62.2698 40.6784 62.3072 40.529 62.3818 40.417C62.4658 40.305 62.5685 40.249 62.6898 40.249H63.9918ZM67.8558 36.847C67.5665 36.931 67.2865 37.085 67.0158 37.309C66.7358 37.533 66.4698 37.8037 66.2178 38.121C65.9658 38.4384 65.7232 38.779 65.4898 39.143C65.2565 39.5164 65.0418 39.8897 64.8458 40.263C65.3685 40.263 65.8865 40.2537 66.3998 40.235C66.9038 40.2164 67.3938 40.1837 67.8698 40.137C68.3365 40.0904 68.7845 40.0204 69.2138 39.927C69.6432 39.8337 70.0398 39.717 70.4038 39.577C70.3758 39.3437 70.3105 39.0824 70.2078 38.793C70.0958 38.513 69.9372 38.2424 69.7318 37.981C69.5265 37.7197 69.2698 37.4864 68.9618 37.281C68.6538 37.0757 68.2852 36.931 67.8558 36.847ZM72.3832 40.249C72.7098 40.249 73.0038 40.2444 73.2652 40.235C73.5172 40.235 73.7832 40.2257 74.0632 40.207C73.8018 39.899 73.6245 39.5677 73.5312 39.213C73.4938 39.0917 73.4658 38.9797 73.4472 38.877C73.4285 38.765 73.4098 38.6624 73.3912 38.569C73.3818 38.4664 73.3772 38.373 73.3772 38.289C73.3772 37.8784 73.4518 37.5097 73.6012 37.183C73.7598 36.8564 73.9558 36.5764 74.1892 36.343C74.4318 36.119 74.7118 35.9417 75.0292 35.811C75.3372 35.6897 75.6592 35.629 75.9952 35.629C76.6112 35.629 77.2785 35.8904 77.9972 36.413L77.5352 37.197C77.3205 37.0757 77.1012 36.973 76.8772 36.889C76.6532 36.805 76.4338 36.763 76.2192 36.763C76.1072 36.763 75.9532 36.7724 75.7572 36.791C75.5518 36.819 75.3512 36.8797 75.1552 36.973C74.9592 37.0757 74.7912 37.225 74.6512 37.421C74.5018 37.6077 74.4272 37.8784 74.4272 38.233C74.4272 38.4104 74.4645 38.611 74.5392 38.835C74.6045 39.0404 74.6932 39.2364 74.8052 39.423C74.9172 39.6004 75.0432 39.7544 75.1832 39.885C75.3138 40.0064 75.4398 40.067 75.5612 40.067C75.7478 40.067 76.1258 40.0157 76.6952 39.913C77.2552 39.8197 77.9598 39.6564 78.8092 39.423L79.0472 40.585C78.3752 40.7717 77.7778 40.921 77.2552 41.033C76.7325 41.1544 76.2238 41.2477 75.7292 41.313C75.2252 41.3784 74.7118 41.4204 74.1892 41.439C73.6572 41.467 73.0552 41.481 72.3832 41.481C72.2618 41.481 72.1592 41.425 72.0752 41.313C72.0005 41.2104 71.9632 41.061 71.9632 40.865C71.9632 40.6784 72.0005 40.529 72.0752 40.417C72.1592 40.305 72.2618 40.249 72.3832 40.249Z" fill="#382352"/>
</svg>
